#!OML:ASF F:\VICON\USERDATA\INSTALL\rory3\rory3.ASF
:FULLY-SPECIFIED
:DEGREES
3238
root 6.00155 17.8148 -8.92302 564.768 83.109 -1231.23
lowerback 11.3664 1.28178 3.97269
upperback 0.656159 2.39219 1.92313
thorax -5.61302 1.12677 -0.604478
lowerneck -18.6923 -7.19698 -12.7439
upperneck 33.5601 -8.54206 8.9699
head 16.1345 -3.66718 4.51804
rclavicle -9.29318e-015 -1.70955e-014
rhumerus -31.9954 -8.11139 -82.4289
rradius 38.3381
rwrist 0.688672
rhand -19.1081 8.58178
rfingers 7.12502
rthumb 7.20081 -21.2757
lclavicle -9.29318e-015 -1.70955e-014
lhumerus -36.9633 2.97499 87.3216
lradius 29.5253
lwrist -7.15914
lhand -14.9094 24.1393
lfingers 7.12502
lthumb 11.2521 53.8176
rfemur 1.46729 -1.55487 31.4532
rtibia 21.5095
rfoot -15.2118 -0.233962
rtoes 16.3516
lfemur -20.9635 -4.72067 -12.7829
ltibia 39.9355
lfoot -5.59318 2.03233
ltoes -17.5771
3239
root 6.10279 17.8179 -8.94763 566.976 83.3303 -1229.12
lowerback 11.3648 1.28018 4.07369
upperback 0.627958 2.40879 1.98677
thorax -5.64026 1.13268 -0.597344
lowerneck -18.7272 -7.1175 -12.666
upperneck 33.5175 -8.38841 8.80381
head 16.081 -3.61768 4.4578
rclavicle -1.31943e-014 -2.06736e-014
rhumerus -31.9565 -7.53715 -82.5718
rradius 38.815
rwrist 0.117594
rhand -19.2613 8.51254
rfingers 7.12502
rthumb 7.05296 -21.3499
lclavicle -1.31943e-014 -2.06736e-014
lhumerus -36.9449 3.67492 86.9852
lradius 29.4338
lwrist -8.41799
lhand -16.1375 24.4542
lfingers 7.12502
lthumb 10.0675 54.1934
rfemur 1.98146 -1.27072 31.5667
rtibia 21.0298
rfoot -15.022 -0.388259
rtoes 16.3322
lfemur -21.1314 -5.02013 -12.5423
ltibia 37.8225
lfoot -5.4494 2.21082
ltoes -15.5071
3240
root 6.2105 17.8281 -8.96906 568.591 83.5929 -1227.62
lowerback 11.2507 1.27875 4.07645
upperback 0.626707 2.39986 1.987
thorax -5.57787 1.1292 -0.593911
lowerneck -18.7799 -7.01473 -12.6679
upperneck 33.516 -8.25131 8.86504
head 16.0748 -3.55264 4.51328
rclavicle -1.84249e-014 1.19271e-015
rhumerus -31.8857 -7.20458 -82.7372
rradius 39.1925
rwrist -0.153361
rhand -19.0672 8.43922
rfingers 7.12502
rthumb 7.24028 -21.4169
lclavicle -1.84249e-014 1.19271e-015
lhumerus -36.9933 3.37389 87.2372
lradius 29.4874
lwrist -6.84323
lhand -15.1292 24.042
lfingers 7.12502
lthumb 11.0401 53.7316
rfemur 2.5287 -0.93449 31.583
rtibia 20.5658
rfoot -15.1481 -0.922283
rtoes 15.3598
lfemur -21.1943 -5.80816 -12.168
ltibia 35.667
lfoot -5.46618 2.1559
ltoes -6.0979
3241
root 6.31833 17.8293 -8.99281 570.298 83.8181 -1225.94
lowerback 11.183 1.30006 4.10258
upperback 0.670637 2.42827 2.014
thorax -5.49273 1.1455 -0.582076
lowerneck -18.8174 -6.99899 -12.7933
upperneck 33.4843 -8.22052 8.97457
head 16.078 -3.54227 4.58842
rclavicle -3.31722e-015 1.98785e-015
rhumerus -31.7719 -7.0298 -82.7424
rradius 39.4819
rwrist -0.191707
rhand -19.0013 8.24743
rfingers 7.12502
rthumb 7.30386 -21.6065
lclavicle -3.31722e-015 1.98785e-015
lhumerus -36.9326 3.9114 86.8518
lradius 29.4669
lwrist -8.2787
lhand -15.8639 23.9336
lfingers 7.12502
lthumb 10.3314 53.6598
rfemur 3.11653 -0.83281 31.564
rtibia 20.1225
rfoot -15.3547 -1.06668
rtoes 14.8155
lfemur -21.174 -6.38691 -11.8859
ltibia 33.4916
lfoot -5.45299 2.27322
ltoes 0.204121
3242
root 6.42528 17.8195 -9.02003 571.693 84.0269 -1224.61
lowerback 11.0892 1.35624 4.12204
upperback 0.702485 2.49846 2.01399
thorax -5.40315 1.18176 -0.600382
lowerneck -18.9103 -7.0482 -12.8082
upperneck 33.5211 -8.2631 8.92175
head 16.1232 -3.56855 4.55875
rclavicle 5.69021e-015 1.98785e-015
rhumerus -31.7183 -6.85308 -82.7288
rradius 39.7936
rwrist -0.282573
rhand -19.1339 8.06624
rfingers 7.12502
rthumb 7.17592 -21.7921
lclavicle 5.69021e-015 1.98785e-015
lhumerus -36.9243 3.48139 87.1952
lradius 29.5545
lwrist -7.0285
lhand -15.0579 24.0504
lfingers 7.12502
lthumb 11.1089 53.7364
rfemur 3.60491 -0.805832 31.4852
rtibia 19.7871
rfoot -15.3975 -0.983585
rtoes 14.6382
lfemur -21.2198 -6.36061 -11.9078
ltibia 31.307
lfoot -5.41501 2.28115
ltoes -4.6137
3243
root 6.53178 17.8034 -9.04596 572.827 84.2476 -1223.53
lowerback 11.0246 1.4027 4.06864
upperback 0.741895 2.54984 2.03635
thorax -5.3268 1.2108 -0.552288
lowerneck -18.9815 -7.04192 -12.704
upperneck 33.4813 -8.22734 8.75877
head 16.0975 -3.56319 4.4705
rclavicle -3.27746e-014 -4.09496e-014
rhumerus -31.5935 -6.58808 -82.7006
rradius 40.0054
rwrist -0.501433
rhand -19.16 8.15945
rfingers 7.12502
rthumb 7.15069 -21.6997
lclavicle -3.27746e-014 -4.09496e-014
lhumerus -36.8102 4.15982 86.7743
lradius 29.4583
lwrist -9.36863
lhand -15.0256 24.4162
lfingers 7.12502
lthumb 11.14 54.1005
rfemur 3.99947 -0.740327 31.4116
rtibia 19.6482
rfoot -15.4389 -1.15418
rtoes 12.6175
lfemur -21.221 -6.22558 -11.9918
ltibia 29.1162
lfoot -5.44066 2.00701
ltoes -9.76218
